<svg width="1356" height="550" viewBox="0 0 1356 550" fill="none" xmlns="http://www.w3.org/2000/svg">
<path d="M0 276.624V238.745C24.5397 238.745 41.6454 233.767 51.3169 223.81C61.1328 213.709 66.0407 197.331 66.0407 174.675V119.481C66.0407 95.0939 69.0721 75.1082 75.1349 59.5239C81.342 43.9394 90.3639 31.8183 102.201 23.1601C114.037 14.5022 128.473 8.5137 145.506 5.19481C162.539 1.7316 181.883 0 203.535 0V60.1732C186.502 60.1732 173.438 62.5541 164.344 67.316C155.25 71.9336 148.971 79.0765 145.506 88.7446C142.186 98.4127 140.526 110.75 140.526 125.758V196.753C140.526 207.865 138.649 218.254 134.896 227.923C131.143 237.59 124.286 246.103 114.326 253.463C104.366 260.679 90.1474 266.378 71.6705 270.562C53.3377 274.603 29.4477 276.624 0 276.624ZM203.535 550C181.883 550 162.539 548.269 145.506 544.805C128.473 541.486 114.037 535.498 102.201 526.84C90.3639 518.183 81.342 506.061 75.1349 490.477C69.0721 474.891 66.0407 454.907 66.0407 430.52V375.542C66.0407 352.886 61.1328 336.58 51.3169 326.623C41.6454 316.522 24.5397 311.472 0 311.472V273.593C29.4477 273.593 53.3377 275.685 71.6705 279.87C90.1474 283.911 104.366 289.61 114.326 296.97C124.286 304.185 131.143 312.627 134.896 322.294C138.649 331.963 140.526 342.28 140.526 353.247V424.243C140.526 439.249 142.186 451.588 145.506 461.256C148.971 470.923 155.25 478.139 164.344 482.901C173.438 487.662 186.502 490.044 203.535 490.044V550ZM0 311.472V238.745H68.639V311.472H0ZM508.135 496.753L382.982 53.4632H469.376L549.274 379.22H553.389L638.7 53.4632H717.3L802.827 379.437H806.725L886.624 53.4632H973.018L847.866 496.753H768.616L679.841 185.715H676.376L587.383 496.753H508.135ZM1356 273.593V311.472C1331.46 311.472 1314.28 316.522 1304.47 326.623C1294.8 336.58 1289.96 352.886 1289.96 375.542V430.52C1289.96 454.907 1286.86 474.891 1280.65 490.477C1274.59 506.061 1265.64 518.183 1253.8 526.84C1241.96 535.498 1227.53 541.486 1210.49 544.805C1193.46 548.269 1174.12 550 1152.46 550V490.044C1169.5 490.044 1182.56 487.662 1191.66 482.901C1200.75 478.139 1206.96 470.923 1210.28 461.256C1213.74 451.588 1215.47 439.249 1215.47 424.243V353.247C1215.47 342.28 1217.35 331.963 1221.1 322.294C1224.86 312.627 1231.71 304.185 1241.67 296.97C1251.63 289.61 1265.78 283.911 1284.11 279.87C1302.59 275.685 1326.55 273.593 1356 273.593ZM1152.46 0C1174.12 0 1193.46 1.7316 1210.49 5.19481C1227.53 8.5137 1241.96 14.5022 1253.8 23.1601C1265.64 31.8183 1274.59 43.9394 1280.65 59.5239C1286.86 75.1082 1289.96 95.0939 1289.96 119.481V174.675C1289.96 197.331 1294.8 213.709 1304.47 223.81C1314.28 233.767 1331.46 238.745 1356 238.745V276.624C1326.55 276.624 1302.59 274.603 1284.11 270.562C1265.78 266.378 1251.63 260.679 1241.67 253.463C1231.71 246.103 1224.86 237.59 1221.1 227.923C1217.35 218.254 1215.47 207.865 1215.47 196.753V125.758C1215.47 110.75 1213.74 98.4127 1210.28 88.7446C1206.96 79.0765 1200.75 71.9336 1191.66 67.316C1182.56 62.5541 1169.5 60.1732 1152.46 60.1732V0ZM1356 238.745V311.472H1287.36V238.745H1356Z" fill="#302950"/>
</svg>
